<svg fill="#f39442" width="40px" height="40px" id="Слой_35" data-name="Слой 35" xmlns="http://www.w3.org/2000/svg" viewBox="0 0 32 32">
    <circle class="cls-1" cx="8.43" cy="20.08" r="1.75"/>
    <path class="cls-1" d="M24.15,5.52H7.85A5.83,5.83,0,0,0,2,11.34v9.32a5.83,5.83,0,0,0,5.83,5.82h16.3A5.83,5.83,0,0,0,30,20.66V11.34A5.83,5.83,0,0,0,24.15,5.52ZM7.85,7.85h16.3a3.5,3.5,0,0,1,3.5,3.49H4.35A3.5,3.5,0,0,1,7.85,7.85Zm16.3,16.3H7.85a3.5,3.5,0,0,1-3.5-3.49v-7h23.3v7A3.5,3.5,0,0,1,24.15,24.15Z"/>
</svg>