<svg id="Слой_34" data-name="Слой 34" xmlns="http://www.w3.org/2000/svg" fill="#f39442" width="40px" height="40px" viewBox="0 0 32 32">
    <path class="cls-1" d="M23.77,3.08,9.54,17.31a5.8,5.8,0,0,0-1.71,4.12V23A1.18,1.18,0,0,0,9,24.17h1.57a5.8,5.8,0,0,0,4.12-1.71L28.91,8.23a3.65,3.65,0,0,0,0-5.15A3.73,3.73,0,0,0,23.77,3.08Zm3.5,3.5L13,20.81a3.53,3.53,0,0,1-2.47,1h-.4v-.4a3.53,3.53,0,0,1,1-2.47L25.41,4.73a1.36,1.36,0,0,1,1.86,0A1.31,1.31,0,0,1,27.27,6.58Z"/><path class="cls-1" d="M28.83,12.48a1.16,1.16,0,0,0-1.16,1.16V19.5H23A3.5,3.5,0,0,0,19.5,23v4.67H7.83a3.5,3.5,0,0,1-3.5-3.5V7.83a3.5,3.5,0,0,1,3.5-3.5H18.38a1.17,1.17,0,1,0,0-2.33H7.83A5.83,5.83,0,0,0,2,7.83V24.17A5.83,5.83,0,0,0,7.83,30H21.07a5.8,5.8,0,0,0,4.12-1.71l3.1-3.1A5.8,5.8,0,0,0,30,21.07V13.64A1.16,1.16,0,0,0,28.83,12.48ZM23.54,26.64a3.53,3.53,0,0,1-1.71.94V23A1.18,1.18,0,0,1,23,21.83h4.58a3.59,3.59,0,0,1-.93,1.71Z"/>
</svg>