<svg id="Слой_36" fill="#f39442" width="40px" height="40px" data-name="Слой 36" xmlns="http://www.w3.org/2000/svg" viewBox="0 0 32 32">
    <path class="cls-1" d="M24.79,5.64,22.86,3.71A5.83,5.83,0,0,0,18.73,2h-7.4A5.84,5.84,0,0,0,5.5,7.83V24.16A5.84,5.84,0,0,0,11.33,30h9.34a5.84,5.84,0,0,0,5.83-5.83V9.76a5.85,5.85,0,0,0-1.71-4.12ZM23.14,7.29a3.84,3.84,0,0,1,.44.54H20.67V4.92a3.71,3.71,0,0,1,.54.44Zm1,16.87a3.5,3.5,0,0,1-3.49,3.5H11.33a3.5,3.5,0,0,1-3.49-3.5V7.83a3.5,3.5,0,0,1,3.49-3.5h7v3.5a2.33,2.33,0,0,0,2.34,2.33h3.49ZM20.67,12.5a1.17,1.17,0,0,1,0,2.33H11.33a1.17,1.17,0,0,1,0-2.33Zm1.16,5.83a1.16,1.16,0,0,1-1.16,1.16H11.33a1.17,1.17,0,0,1,0-2.33h9.34A1.16,1.16,0,0,1,21.83,18.33Zm-.22,4a1.16,1.16,0,0,1-.26,1.62,7.51,7.51,0,0,1-4,1.4A3.88,3.88,0,0,1,15,24.51a1.31,1.31,0,0,0-.82-.35,4.67,4.67,0,0,0-2.13.92,1.16,1.16,0,0,1-1.63-.27,1.18,1.18,0,0,1,.21-1.58,6.89,6.89,0,0,1,3.56-1.4,3.53,3.53,0,0,1,2.14.76,1.54,1.54,0,0,0,1,.4A5.31,5.31,0,0,0,20,22.05a1.17,1.17,0,0,1,1.63.26Z"/>
</svg>