
<svg id="Слой_31" data-name="Слой 31" xmlns="http://www.w3.org/2000/svg" width="40" height="40" fill="#f39442" viewBox="0 0 32 32">
    <path d="M19.44,10.24V5.61a1.16,1.16,0,1,1,2.32,0v3l6.13-6.16a1.16,1.16,0,0,1,1.67,1.61l0,0-6.1,6.13h3a1.16,1.16,0,0,1,0,2.32H21.76a2.32,2.32,0,0,1-2.32-2.32Zm9.38,11.28a3.59,3.59,0,0,1,0,5.07l-1.06,1.22C18.28,36.88-4.8,13.81,4.14,4.3L5.47,3.14a3.57,3.57,0,0,1,5,0S12.66,6,12.66,6a3.59,3.59,0,0,1,0,5l-1.34,1.68a14.79,14.79,0,0,0,8,8L21,19.35a3.58,3.58,0,0,1,4.95,0l2.83,2.18ZM27.23,23.2,24.42,21a1.26,1.26,0,0,0-1.79,0l-2.37,1.89a1.17,1.17,0,0,1-1.14.17A17.39,17.39,0,0,1,8.9,12.9a1.18,1.18,0,0,1,.17-1.16S10.93,9.41,11,9.38a1.29,1.29,0,0,0,0-1.8S8.8,4.78,8.8,4.78a1.28,1.28,0,0,0-1.75,0L5.72,6C-.82,13.84,19.19,32.73,26.07,26.23L27.13,25A1.31,1.31,0,0,0,27.23,23.2Z"/>
</svg>